G04 #@! TF.GenerationSoftware,KiCad,Pcbnew,5.1.5-52549c5~84~ubuntu18.04.1*
G04 #@! TF.CreationDate,2020-03-10T09:35:07+09:00*
G04 #@! TF.ProjectId,RFID-RC522_Raspberrypi,52464944-2d52-4433-9532-325f52617370,rev?*
G04 #@! TF.SameCoordinates,Original*
G04 #@! TF.FileFunction,Soldermask,Bot*
G04 #@! TF.FilePolarity,Negative*
%FSLAX46Y46*%
G04 Gerber Fmt 4.6, Leading zero omitted, Abs format (unit mm)*
G04 Created by KiCad (PCBNEW 5.1.5-52549c5~84~ubuntu18.04.1) date 2020-03-10 09:35:07*
%MOMM*%
%LPD*%
G04 APERTURE LIST*
%ADD10C,3.150000*%
%ADD11C,2.100000*%
%ADD12C,4.200000*%
%ADD13O,20.400000X5.400000*%
%ADD14C,2.900000*%
%ADD15R,2.400000X2.400000*%
%ADD16C,2.400000*%
%ADD17R,2.000000X2.000000*%
%ADD18C,2.000000*%
%ADD19R,2.200000X3.000000*%
%ADD20O,2.200000X3.000000*%
%ADD21C,3.400000*%
%ADD22R,3.400000X3.400000*%
%ADD23O,2.000000X2.000000*%
%ADD24C,1.950000*%
%ADD25R,1.950000X1.950000*%
G04 APERTURE END LIST*
D10*
X199000000Y-64500000D03*
X199000000Y-122500000D03*
X150000000Y-122500000D03*
D11*
X148730000Y-69370000D03*
X151270000Y-69370000D03*
X148730000Y-71910000D03*
X151270000Y-71910000D03*
X148730000Y-74450000D03*
X151270000Y-74450000D03*
X148730000Y-76990000D03*
X151270000Y-76990000D03*
X148730000Y-79530000D03*
X151270000Y-79530000D03*
X148730000Y-82070000D03*
X151270000Y-82070000D03*
X148730000Y-84610000D03*
X151270000Y-84610000D03*
X148730000Y-87150000D03*
X151270000Y-87150000D03*
X148730000Y-89690000D03*
X151270000Y-89690000D03*
X148730000Y-92230000D03*
X151270000Y-92230000D03*
X148730000Y-94770000D03*
X151270000Y-94770000D03*
X148730000Y-97310000D03*
X151270000Y-97310000D03*
X148730000Y-99850000D03*
X151270000Y-99850000D03*
X148730000Y-102390000D03*
X151270000Y-102390000D03*
X148730000Y-104930000D03*
X151270000Y-104930000D03*
X148730000Y-107470000D03*
X151270000Y-107470000D03*
X148730000Y-110010000D03*
X151270000Y-110010000D03*
X148730000Y-112550000D03*
X151270000Y-112550000D03*
X148730000Y-115090000D03*
X151270000Y-115090000D03*
X148730000Y-117630000D03*
X151270000Y-117630000D03*
X148000000Y-133110000D03*
X148000000Y-135650000D03*
X148000000Y-138190000D03*
X148000000Y-140730000D03*
X148000000Y-143270000D03*
X148000000Y-145810000D03*
X148000000Y-148350000D03*
X148000000Y-150890000D03*
D12*
X200000000Y-154500000D03*
X200000000Y-129500000D03*
X162000000Y-125000000D03*
X162000000Y-159000000D03*
D13*
X156000000Y-159000000D03*
D14*
X141000000Y-160000000D03*
X219000000Y-160000000D03*
X141000000Y-59000000D03*
X219000000Y-59000000D03*
X141000000Y-100000000D03*
X219000000Y-100000000D03*
D15*
X208280000Y-110490000D03*
D16*
X215880000Y-110490000D03*
D17*
X141500000Y-133500000D03*
D18*
X141500000Y-137000000D03*
D19*
X148000000Y-65000000D03*
D20*
X150540000Y-65000000D03*
X153080000Y-65000000D03*
X155620000Y-65000000D03*
X158160000Y-65000000D03*
X160700000Y-65000000D03*
X163240000Y-65000000D03*
X165780000Y-65000000D03*
X168320000Y-65000000D03*
X170860000Y-65000000D03*
X173400000Y-65000000D03*
X175940000Y-65000000D03*
X178480000Y-65000000D03*
X181020000Y-65000000D03*
X183560000Y-65000000D03*
X186100000Y-65000000D03*
D21*
X142500900Y-65000000D03*
X142500900Y-96000700D03*
X217499480Y-96000700D03*
X217500000Y-65000000D03*
D22*
X214630000Y-121920000D03*
D21*
X214630000Y-127000000D03*
D18*
X201250000Y-118000000D03*
D23*
X201250000Y-105300000D03*
D24*
X211750000Y-53500000D03*
D25*
X206750000Y-53500000D03*
D24*
X209250000Y-58500000D03*
D17*
X142000000Y-112000000D03*
D18*
X142000000Y-115500000D03*
M02*
