G04 #@! TF.GenerationSoftware,KiCad,Pcbnew,5.1.5-52549c5~84~ubuntu18.04.1*
G04 #@! TF.CreationDate,2020-03-10T09:35:07+09:00*
G04 #@! TF.ProjectId,RFID-RC522_Raspberrypi,52464944-2d52-4433-9532-325f52617370,rev?*
G04 #@! TF.SameCoordinates,Original*
G04 #@! TF.FileFunction,Profile,NP*
%FSLAX46Y46*%
G04 Gerber Fmt 4.6, Leading zero omitted, Abs format (unit mm)*
G04 Created by KiCad (PCBNEW 5.1.5-52549c5~84~ubuntu18.04.1) date 2020-03-10 09:35:07*
%MOMM*%
%LPD*%
G04 APERTURE LIST*
%ADD10C,0.200000*%
G04 APERTURE END LIST*
D10*
X223000000Y-52750000D02*
X223000000Y-167250000D01*
X137000000Y-167250000D02*
X137000000Y-52750000D01*
X144750000Y-167250000D02*
X137000000Y-167250000D01*
X144750000Y-177250000D02*
X144750000Y-167250000D01*
X215250000Y-177250000D02*
X144750000Y-177250000D01*
X215250000Y-167250000D02*
X215250000Y-177250000D01*
X223000000Y-167250000D02*
X215250000Y-167250000D01*
X144750000Y-52750000D02*
X137000000Y-52750000D01*
X144750000Y-43750000D02*
X144750000Y-52750000D01*
X215250000Y-43750000D02*
X144750000Y-43750000D01*
X215250000Y-52750000D02*
X215250000Y-43750000D01*
X223000000Y-52750000D02*
X215250000Y-52750000D01*
X137000000Y-52750000D02*
X137000000Y-53000000D01*
X141000000Y-52750000D02*
X137000000Y-52750000D01*
X223000000Y-52750000D02*
X219000000Y-52750000D01*
X223000000Y-53000000D02*
X223000000Y-52750000D01*
X223000000Y-53000000D02*
X223000000Y-59000000D01*
X137000000Y-59000000D02*
X137000000Y-53000000D01*
X137000000Y-59000000D02*
X137000000Y-100000000D01*
X223000000Y-100000000D02*
X223000000Y-59000000D01*
M02*
