M48
; DRILL file {KiCad 5.1.5-52549c5~84~ubuntu18.04.1} date 2020年03月10日 09時35分15秒
; FORMAT={-:-/ absolute / inch / decimal}
; #@! TF.CreationDate,2020-03-10T09:35:15+09:00
; #@! TF.GenerationSoftware,Kicad,Pcbnew,5.1.5-52549c5~84~ubuntu18.04.1
; #@! TF.FileFunction,Plated,1,2,PTH
FMAT,2
INCH
T1C0.0315
T2C0.0394
T3C0.0394
T4C0.0472
T5C0.0598
T6C0.0984
%
G90
G05
T1
X5.5906Y-4.4094
X5.5906Y-4.5472
X7.9232Y-4.1457
X7.9232Y-4.6457
X5.5709Y-5.2559
X5.5709Y-5.3937
T2
X8.2Y-4.35
X8.4992Y-4.35
X5.8268Y-5.2406
X5.8268Y-5.3406
X5.8268Y-5.4406
X5.8268Y-5.5406
X5.8268Y-5.6406
X5.8268Y-5.7406
X5.8268Y-5.8406
X5.8268Y-5.9406
X5.8555Y-2.7311
X5.8555Y-2.8311
X5.8555Y-2.9311
X5.8555Y-3.0311
X5.8555Y-3.1311
X5.8555Y-3.2311
X5.8555Y-3.3311
X5.8555Y-3.4311
X5.8555Y-3.5311
X5.8555Y-3.6311
X5.8555Y-3.7311
X5.8555Y-3.8311
X5.8555Y-3.9311
X5.8555Y-4.0311
X5.8555Y-4.1311
X5.8555Y-4.2311
X5.8555Y-4.3311
X5.8555Y-4.4311
X5.8555Y-4.5311
X5.8555Y-4.6311
X5.9555Y-2.7311
X5.9555Y-2.8311
X5.9555Y-2.9311
X5.9555Y-3.0311
X5.9555Y-3.1311
X5.9555Y-3.2311
X5.9555Y-3.3311
X5.9555Y-3.4311
X5.9555Y-3.5311
X5.9555Y-3.6311
X5.9555Y-3.7311
X5.9555Y-3.8311
X5.9555Y-3.9311
X5.9555Y-4.0311
X5.9555Y-4.1311
X5.9555Y-4.2311
X5.9555Y-4.3311
X5.9555Y-4.4311
X5.9555Y-4.5311
X5.9555Y-4.6311
X8.1398Y-2.1063
X8.2382Y-2.3031
X8.3366Y-2.1063
T3
X6.0766Y-3.8557
X6.1201Y-3.5613
X6.1417Y-2.8346
X6.1537Y-3.4832
X6.1811Y-3.622
X6.2072Y-3.8229
X6.2132Y-3.4999
X6.2246Y-3.6822
X6.3209Y-2.9311
X6.811Y-2.874
X6.9291Y-2.7559
X7.039Y-3.936
X7.147Y-4.028
X7.579Y-4.022
T4
X5.8268Y-2.5591
X5.9268Y-2.5591
X6.0268Y-2.5591
X6.1268Y-2.5591
X6.2268Y-2.5591
X6.3268Y-2.5591
X6.4268Y-2.5591
X6.5268Y-2.5591
X6.6268Y-2.5591
X6.7268Y-2.5591
X6.8268Y-2.5591
X6.9268Y-2.5591
X7.0268Y-2.5591
X7.1268Y-2.5591
X7.2268Y-2.5591
X7.3268Y-2.5591
T5
X8.45Y-4.8
X8.45Y-5.0
T6
X5.6103Y-2.5591
X5.6103Y-3.7796
X8.563Y-3.7796
X8.563Y-2.5591
T0
M30
