G04 #@! TF.GenerationSoftware,KiCad,Pcbnew,5.1.5-52549c5~84~ubuntu18.04.1*
G04 #@! TF.CreationDate,2020-03-10T09:35:07+09:00*
G04 #@! TF.ProjectId,RFID-RC522_Raspberrypi,52464944-2d52-4433-9532-325f52617370,rev?*
G04 #@! TF.SameCoordinates,Original*
G04 #@! TF.FileFunction,Legend,Top*
G04 #@! TF.FilePolarity,Positive*
%FSLAX46Y46*%
G04 Gerber Fmt 4.6, Leading zero omitted, Abs format (unit mm)*
G04 Created by KiCad (PCBNEW 5.1.5-52549c5~84~ubuntu18.04.1) date 2020-03-10 09:35:07*
%MOMM*%
%LPD*%
G04 APERTURE LIST*
%ADD10C,0.150000*%
%ADD11C,0.120000*%
%ADD12C,0.002540*%
G04 APERTURE END LIST*
D10*
X180000000Y-123000000D02*
X151000000Y-123000000D01*
X180000000Y-123000000D02*
X209000000Y-123000000D01*
X216000000Y-37500000D02*
X145000000Y-37500000D01*
X180500000Y-37500000D02*
X216000000Y-37500000D01*
D11*
X199000000Y-84000000D02*
X199000000Y-86500000D01*
X204000000Y-84000000D02*
X199000000Y-84000000D01*
X204000000Y-89000000D02*
X204000000Y-84000000D01*
X199000000Y-89000000D02*
X204000000Y-89000000D01*
X199000000Y-86500000D02*
X199000000Y-89000000D01*
X199000000Y-102500000D02*
X199000000Y-97500000D01*
X204000000Y-102500000D02*
X204000000Y-100000000D01*
X199000000Y-102500000D02*
X204000000Y-102500000D01*
X199000000Y-97500000D02*
X204000000Y-97500000D01*
X202500000Y-126000000D02*
X202500000Y-100000000D01*
X150460000Y-64500000D02*
G75*
G03X150460000Y-64500000I-3000000J0D01*
G01*
X153000000Y-122500000D02*
G75*
G03X153000000Y-122500000I-3000000J0D01*
G01*
X202000000Y-122500000D02*
G75*
G03X202000000Y-122500000I-3000000J0D01*
G01*
X202000000Y-64500000D02*
G75*
G03X202000000Y-64500000I-3000000J0D01*
G01*
X162500000Y-39000000D02*
X161500000Y-39000000D01*
X162500000Y-39500000D02*
X162500000Y-39000000D01*
X148500000Y-39500000D02*
X162500000Y-39500000D01*
X148500000Y-39000000D02*
X148500000Y-39500000D01*
X149500000Y-39000000D02*
X148500000Y-39000000D01*
X180500000Y-39000000D02*
X179500000Y-39000000D01*
X180500000Y-39500000D02*
X180500000Y-39000000D01*
X166500000Y-39500000D02*
X180500000Y-39500000D01*
X166500000Y-39000000D02*
X166500000Y-39500000D01*
X167500000Y-39000000D02*
X166500000Y-39000000D01*
X179500000Y-39000000D02*
X167500000Y-39000000D01*
X179500000Y-56000000D02*
X179500000Y-39000000D01*
X167500000Y-56000000D02*
X179500000Y-56000000D01*
X167500000Y-39000000D02*
X167500000Y-56000000D01*
X173500000Y-39000000D02*
X167500000Y-39000000D01*
X161500000Y-39000000D02*
X149500000Y-39000000D01*
X161500000Y-56000000D02*
X161500000Y-39000000D01*
X161250000Y-39000000D02*
X149500000Y-39000000D01*
X149500000Y-56000000D02*
X161500000Y-56000000D01*
X149500000Y-39000000D02*
X149500000Y-56000000D01*
X155500000Y-39000000D02*
X149500000Y-39000000D01*
X184250000Y-39000000D02*
X200250000Y-39000000D01*
X184250000Y-60000000D02*
X184250000Y-39000000D01*
X200250000Y-60000000D02*
X184250000Y-60000000D01*
X200250000Y-39000000D02*
X200250000Y-60000000D01*
X192250000Y-39000000D02*
X200250000Y-39000000D01*
X180000000Y-79500000D02*
X184000000Y-79500000D01*
X180000000Y-82500000D02*
X180000000Y-79500000D01*
X191000000Y-82500000D02*
X180000000Y-82500000D01*
X202000000Y-82500000D02*
X191000000Y-82500000D01*
X202000000Y-79500000D02*
X202000000Y-82500000D01*
X198000000Y-79500000D02*
X202000000Y-79500000D01*
X197000000Y-78500000D02*
X198000000Y-79500000D01*
X185000000Y-78500000D02*
X197000000Y-78500000D01*
X184000000Y-79500000D02*
X185000000Y-78500000D01*
X163500000Y-119500000D02*
X174500000Y-119500000D01*
X163500000Y-122500000D02*
X163500000Y-119500000D01*
X167500000Y-122500000D02*
X163500000Y-122500000D01*
X168500000Y-123500000D02*
X167500000Y-122500000D01*
X180500000Y-123500000D02*
X168500000Y-123500000D01*
X181500000Y-122500000D02*
X180500000Y-123500000D01*
X185500000Y-122500000D02*
X181500000Y-122500000D01*
X185500000Y-119500000D02*
X185500000Y-122500000D01*
X174500000Y-119500000D02*
X185500000Y-119500000D01*
X202500000Y-69500000D02*
X204500000Y-69500000D01*
X204500000Y-69500000D02*
X204500000Y-75500000D01*
X204000000Y-69500000D02*
X204500000Y-69500000D01*
X202500000Y-75500000D02*
X204500000Y-75500000D01*
X190500000Y-69000000D02*
X202500000Y-69000000D01*
X190500000Y-76000000D02*
X190500000Y-69000000D01*
X202500000Y-76000000D02*
X190500000Y-76000000D01*
X202500000Y-72500000D02*
X202500000Y-76000000D01*
X191000000Y-86500000D02*
X191000000Y-94000000D01*
X204000000Y-86500000D02*
X191000000Y-86500000D01*
X204000000Y-101500000D02*
X204000000Y-86500000D01*
X191000000Y-101500000D02*
X204000000Y-101500000D01*
X191000000Y-94000000D02*
X191000000Y-101500000D01*
X204000000Y-119400000D02*
X202800000Y-119400000D01*
X204000000Y-111400000D02*
X204000000Y-119400000D01*
X199000000Y-111400000D02*
X204000000Y-111400000D01*
X199000000Y-119400000D02*
X199000000Y-111400000D01*
X202800000Y-119400000D02*
X199000000Y-119400000D01*
X149500000Y-126000000D02*
X199000000Y-126000000D01*
X199500000Y-41000000D02*
X149500000Y-41000000D01*
X202500000Y-123000000D02*
X202500000Y-44000000D01*
X146500000Y-44000000D02*
X146500000Y-123000000D01*
X199000000Y-126000000D02*
X199500000Y-126000000D01*
X202500000Y-123000000D02*
X202500000Y-122500000D01*
X202500000Y-123000000D02*
G75*
G02X199500000Y-126000000I-3000000J0D01*
G01*
X149500000Y-126000000D02*
G75*
G02X146500000Y-123000000I0J3000000D01*
G01*
X146500000Y-44000000D02*
G75*
G02X149500000Y-41000000I3000000J0D01*
G01*
X199500000Y-41000000D02*
G75*
G02X202500000Y-44000000I0J-3000000D01*
G01*
D12*
G36*
X198871840Y-174127160D02*
G01*
X198902320Y-174111920D01*
X198965820Y-174071280D01*
X199059800Y-174010320D01*
X199169020Y-173936660D01*
X199280780Y-173860460D01*
X199369680Y-173799500D01*
X199433180Y-173758860D01*
X199461120Y-173746160D01*
X199473820Y-173751240D01*
X199527160Y-173776640D01*
X199603360Y-173814740D01*
X199646540Y-173837600D01*
X199717660Y-173868080D01*
X199750680Y-173873160D01*
X199758300Y-173865540D01*
X199783700Y-173812200D01*
X199821800Y-173720760D01*
X199875140Y-173598840D01*
X199936100Y-173459140D01*
X199999600Y-173306740D01*
X200065640Y-173151800D01*
X200126600Y-173001940D01*
X200179940Y-172869860D01*
X200223120Y-172760640D01*
X200253600Y-172686980D01*
X200263760Y-172653960D01*
X200261220Y-172646340D01*
X200225660Y-172613320D01*
X200164700Y-172567600D01*
X200032620Y-172460920D01*
X199903080Y-172298360D01*
X199824340Y-172112940D01*
X199796400Y-171909740D01*
X199819260Y-171719240D01*
X199895460Y-171536360D01*
X200022460Y-171373800D01*
X200174860Y-171251880D01*
X200355200Y-171173140D01*
X200558400Y-171150280D01*
X200751440Y-171170600D01*
X200936860Y-171244260D01*
X201101960Y-171368720D01*
X201170540Y-171450000D01*
X201267060Y-171615100D01*
X201320400Y-171792900D01*
X201328020Y-171838620D01*
X201317860Y-172034200D01*
X201261980Y-172219620D01*
X201157840Y-172387260D01*
X201015600Y-172524420D01*
X200997820Y-172539660D01*
X200929240Y-172587920D01*
X200886060Y-172623480D01*
X200850500Y-172651420D01*
X201099420Y-173250860D01*
X201140060Y-173344840D01*
X201208640Y-173509940D01*
X201267060Y-173649640D01*
X201315320Y-173761400D01*
X201348340Y-173837600D01*
X201363580Y-173868080D01*
X201366120Y-173868080D01*
X201386440Y-173873160D01*
X201432160Y-173855380D01*
X201515980Y-173814740D01*
X201571860Y-173786800D01*
X201635360Y-173756320D01*
X201663300Y-173746160D01*
X201688700Y-173758860D01*
X201749660Y-173796960D01*
X201838560Y-173857920D01*
X201945240Y-173931580D01*
X202046840Y-174000160D01*
X202140820Y-174061120D01*
X202209400Y-174104300D01*
X202242420Y-174122080D01*
X202247500Y-174122080D01*
X202277980Y-174106840D01*
X202331320Y-174061120D01*
X202412600Y-173984920D01*
X202529440Y-173870620D01*
X202547220Y-173852840D01*
X202641200Y-173756320D01*
X202717400Y-173675040D01*
X202770740Y-173619160D01*
X202788520Y-173591220D01*
X202770740Y-173558200D01*
X202727560Y-173492160D01*
X202666600Y-173395640D01*
X202590400Y-173283880D01*
X202392280Y-172996860D01*
X202501500Y-172725080D01*
X202534520Y-172641260D01*
X202577700Y-172539660D01*
X202608180Y-172468540D01*
X202623420Y-172435520D01*
X202653900Y-172425360D01*
X202727560Y-172407580D01*
X202836780Y-172384720D01*
X202966320Y-172361860D01*
X203088240Y-172339000D01*
X203197460Y-172318680D01*
X203278740Y-172303440D01*
X203314300Y-172295820D01*
X203324460Y-172290740D01*
X203329540Y-172272960D01*
X203334620Y-172234860D01*
X203337160Y-172168820D01*
X203339700Y-172062140D01*
X203339700Y-171909740D01*
X203339700Y-171891960D01*
X203337160Y-171744640D01*
X203334620Y-171630340D01*
X203332080Y-171554140D01*
X203327000Y-171523660D01*
X203291440Y-171516040D01*
X203212700Y-171498260D01*
X203103480Y-171477940D01*
X202971400Y-171452540D01*
X202961240Y-171450000D01*
X202831700Y-171424600D01*
X202719940Y-171401740D01*
X202643740Y-171383960D01*
X202610720Y-171373800D01*
X202603100Y-171363640D01*
X202577700Y-171312840D01*
X202539600Y-171231560D01*
X202496420Y-171132500D01*
X202453240Y-171028360D01*
X202415140Y-170936920D01*
X202389740Y-170865800D01*
X202382120Y-170835320D01*
X202384660Y-170835320D01*
X202402440Y-170802300D01*
X202448160Y-170733720D01*
X202511660Y-170639740D01*
X202590400Y-170527980D01*
X202595480Y-170520360D01*
X202671680Y-170408600D01*
X202732640Y-170314620D01*
X202773280Y-170246040D01*
X202788520Y-170215560D01*
X202763120Y-170182540D01*
X202707240Y-170119040D01*
X202625960Y-170032680D01*
X202526900Y-169936160D01*
X202496420Y-169905680D01*
X202389740Y-169799000D01*
X202313540Y-169730420D01*
X202267820Y-169692320D01*
X202244960Y-169684700D01*
X202242420Y-169684700D01*
X202209400Y-169705020D01*
X202140820Y-169750740D01*
X202044300Y-169816780D01*
X201932540Y-169892980D01*
X201924920Y-169898060D01*
X201813160Y-169974260D01*
X201719180Y-170037760D01*
X201653140Y-170080940D01*
X201625200Y-170098720D01*
X201620120Y-170098720D01*
X201574400Y-170083480D01*
X201495660Y-170055540D01*
X201399140Y-170019980D01*
X201295000Y-169976800D01*
X201203560Y-169938700D01*
X201132440Y-169905680D01*
X201099420Y-169887900D01*
X201099420Y-169885360D01*
X201086720Y-169847260D01*
X201066400Y-169763440D01*
X201043540Y-169649140D01*
X201018140Y-169511980D01*
X201013060Y-169489120D01*
X200987660Y-169357040D01*
X200967340Y-169247820D01*
X200952100Y-169171620D01*
X200944480Y-169141140D01*
X200924160Y-169136060D01*
X200860660Y-169130980D01*
X200761600Y-169128440D01*
X200642220Y-169128440D01*
X200517760Y-169128440D01*
X200393300Y-169130980D01*
X200289160Y-169136060D01*
X200212960Y-169141140D01*
X200182480Y-169146220D01*
X200182480Y-169148760D01*
X200169780Y-169189400D01*
X200152000Y-169273220D01*
X200129140Y-169387520D01*
X200101200Y-169524680D01*
X200096120Y-169550080D01*
X200073260Y-169682160D01*
X200050400Y-169788840D01*
X200035160Y-169865040D01*
X200025000Y-169892980D01*
X200014840Y-169900600D01*
X199958960Y-169923460D01*
X199870060Y-169961560D01*
X199760840Y-170004740D01*
X199506840Y-170108880D01*
X199194420Y-169892980D01*
X199163940Y-169875200D01*
X199052180Y-169799000D01*
X198960740Y-169735500D01*
X198897240Y-169694860D01*
X198869300Y-169679620D01*
X198866760Y-169682160D01*
X198836280Y-169707560D01*
X198775320Y-169765980D01*
X198688960Y-169849800D01*
X198592440Y-169946320D01*
X198518780Y-170019980D01*
X198432420Y-170106340D01*
X198379080Y-170164760D01*
X198348600Y-170202860D01*
X198338440Y-170225720D01*
X198340980Y-170240960D01*
X198361300Y-170273980D01*
X198407020Y-170342560D01*
X198470520Y-170436540D01*
X198546720Y-170548300D01*
X198610220Y-170639740D01*
X198676260Y-170743880D01*
X198721980Y-170820080D01*
X198737220Y-170855640D01*
X198732140Y-170870880D01*
X198711820Y-170931840D01*
X198673720Y-171025820D01*
X198628000Y-171135040D01*
X198518780Y-171381420D01*
X198356220Y-171414440D01*
X198257160Y-171432220D01*
X198120000Y-171457620D01*
X197990460Y-171483020D01*
X197784720Y-171523660D01*
X197777100Y-172275500D01*
X197807580Y-172290740D01*
X197838060Y-172298360D01*
X197914260Y-172316140D01*
X198023480Y-172336460D01*
X198150480Y-172361860D01*
X198259700Y-172382180D01*
X198371460Y-172402500D01*
X198450200Y-172417740D01*
X198485760Y-172425360D01*
X198493380Y-172435520D01*
X198521320Y-172488860D01*
X198559420Y-172575220D01*
X198602600Y-172676820D01*
X198648320Y-172780960D01*
X198686420Y-172880020D01*
X198714360Y-172953680D01*
X198724520Y-172991780D01*
X198709280Y-173019720D01*
X198666100Y-173085760D01*
X198605140Y-173177200D01*
X198531480Y-173286420D01*
X198457820Y-173395640D01*
X198394320Y-173489620D01*
X198351140Y-173555660D01*
X198330820Y-173586140D01*
X198340980Y-173609000D01*
X198384160Y-173659800D01*
X198467980Y-173746160D01*
X198589900Y-173868080D01*
X198610220Y-173885860D01*
X198706740Y-173979840D01*
X198790560Y-174056040D01*
X198846440Y-174106840D01*
X198871840Y-174127160D01*
G37*
X198871840Y-174127160D02*
X198902320Y-174111920D01*
X198965820Y-174071280D01*
X199059800Y-174010320D01*
X199169020Y-173936660D01*
X199280780Y-173860460D01*
X199369680Y-173799500D01*
X199433180Y-173758860D01*
X199461120Y-173746160D01*
X199473820Y-173751240D01*
X199527160Y-173776640D01*
X199603360Y-173814740D01*
X199646540Y-173837600D01*
X199717660Y-173868080D01*
X199750680Y-173873160D01*
X199758300Y-173865540D01*
X199783700Y-173812200D01*
X199821800Y-173720760D01*
X199875140Y-173598840D01*
X199936100Y-173459140D01*
X199999600Y-173306740D01*
X200065640Y-173151800D01*
X200126600Y-173001940D01*
X200179940Y-172869860D01*
X200223120Y-172760640D01*
X200253600Y-172686980D01*
X200263760Y-172653960D01*
X200261220Y-172646340D01*
X200225660Y-172613320D01*
X200164700Y-172567600D01*
X200032620Y-172460920D01*
X199903080Y-172298360D01*
X199824340Y-172112940D01*
X199796400Y-171909740D01*
X199819260Y-171719240D01*
X199895460Y-171536360D01*
X200022460Y-171373800D01*
X200174860Y-171251880D01*
X200355200Y-171173140D01*
X200558400Y-171150280D01*
X200751440Y-171170600D01*
X200936860Y-171244260D01*
X201101960Y-171368720D01*
X201170540Y-171450000D01*
X201267060Y-171615100D01*
X201320400Y-171792900D01*
X201328020Y-171838620D01*
X201317860Y-172034200D01*
X201261980Y-172219620D01*
X201157840Y-172387260D01*
X201015600Y-172524420D01*
X200997820Y-172539660D01*
X200929240Y-172587920D01*
X200886060Y-172623480D01*
X200850500Y-172651420D01*
X201099420Y-173250860D01*
X201140060Y-173344840D01*
X201208640Y-173509940D01*
X201267060Y-173649640D01*
X201315320Y-173761400D01*
X201348340Y-173837600D01*
X201363580Y-173868080D01*
X201366120Y-173868080D01*
X201386440Y-173873160D01*
X201432160Y-173855380D01*
X201515980Y-173814740D01*
X201571860Y-173786800D01*
X201635360Y-173756320D01*
X201663300Y-173746160D01*
X201688700Y-173758860D01*
X201749660Y-173796960D01*
X201838560Y-173857920D01*
X201945240Y-173931580D01*
X202046840Y-174000160D01*
X202140820Y-174061120D01*
X202209400Y-174104300D01*
X202242420Y-174122080D01*
X202247500Y-174122080D01*
X202277980Y-174106840D01*
X202331320Y-174061120D01*
X202412600Y-173984920D01*
X202529440Y-173870620D01*
X202547220Y-173852840D01*
X202641200Y-173756320D01*
X202717400Y-173675040D01*
X202770740Y-173619160D01*
X202788520Y-173591220D01*
X202770740Y-173558200D01*
X202727560Y-173492160D01*
X202666600Y-173395640D01*
X202590400Y-173283880D01*
X202392280Y-172996860D01*
X202501500Y-172725080D01*
X202534520Y-172641260D01*
X202577700Y-172539660D01*
X202608180Y-172468540D01*
X202623420Y-172435520D01*
X202653900Y-172425360D01*
X202727560Y-172407580D01*
X202836780Y-172384720D01*
X202966320Y-172361860D01*
X203088240Y-172339000D01*
X203197460Y-172318680D01*
X203278740Y-172303440D01*
X203314300Y-172295820D01*
X203324460Y-172290740D01*
X203329540Y-172272960D01*
X203334620Y-172234860D01*
X203337160Y-172168820D01*
X203339700Y-172062140D01*
X203339700Y-171909740D01*
X203339700Y-171891960D01*
X203337160Y-171744640D01*
X203334620Y-171630340D01*
X203332080Y-171554140D01*
X203327000Y-171523660D01*
X203291440Y-171516040D01*
X203212700Y-171498260D01*
X203103480Y-171477940D01*
X202971400Y-171452540D01*
X202961240Y-171450000D01*
X202831700Y-171424600D01*
X202719940Y-171401740D01*
X202643740Y-171383960D01*
X202610720Y-171373800D01*
X202603100Y-171363640D01*
X202577700Y-171312840D01*
X202539600Y-171231560D01*
X202496420Y-171132500D01*
X202453240Y-171028360D01*
X202415140Y-170936920D01*
X202389740Y-170865800D01*
X202382120Y-170835320D01*
X202384660Y-170835320D01*
X202402440Y-170802300D01*
X202448160Y-170733720D01*
X202511660Y-170639740D01*
X202590400Y-170527980D01*
X202595480Y-170520360D01*
X202671680Y-170408600D01*
X202732640Y-170314620D01*
X202773280Y-170246040D01*
X202788520Y-170215560D01*
X202763120Y-170182540D01*
X202707240Y-170119040D01*
X202625960Y-170032680D01*
X202526900Y-169936160D01*
X202496420Y-169905680D01*
X202389740Y-169799000D01*
X202313540Y-169730420D01*
X202267820Y-169692320D01*
X202244960Y-169684700D01*
X202242420Y-169684700D01*
X202209400Y-169705020D01*
X202140820Y-169750740D01*
X202044300Y-169816780D01*
X201932540Y-169892980D01*
X201924920Y-169898060D01*
X201813160Y-169974260D01*
X201719180Y-170037760D01*
X201653140Y-170080940D01*
X201625200Y-170098720D01*
X201620120Y-170098720D01*
X201574400Y-170083480D01*
X201495660Y-170055540D01*
X201399140Y-170019980D01*
X201295000Y-169976800D01*
X201203560Y-169938700D01*
X201132440Y-169905680D01*
X201099420Y-169887900D01*
X201099420Y-169885360D01*
X201086720Y-169847260D01*
X201066400Y-169763440D01*
X201043540Y-169649140D01*
X201018140Y-169511980D01*
X201013060Y-169489120D01*
X200987660Y-169357040D01*
X200967340Y-169247820D01*
X200952100Y-169171620D01*
X200944480Y-169141140D01*
X200924160Y-169136060D01*
X200860660Y-169130980D01*
X200761600Y-169128440D01*
X200642220Y-169128440D01*
X200517760Y-169128440D01*
X200393300Y-169130980D01*
X200289160Y-169136060D01*
X200212960Y-169141140D01*
X200182480Y-169146220D01*
X200182480Y-169148760D01*
X200169780Y-169189400D01*
X200152000Y-169273220D01*
X200129140Y-169387520D01*
X200101200Y-169524680D01*
X200096120Y-169550080D01*
X200073260Y-169682160D01*
X200050400Y-169788840D01*
X200035160Y-169865040D01*
X200025000Y-169892980D01*
X200014840Y-169900600D01*
X199958960Y-169923460D01*
X199870060Y-169961560D01*
X199760840Y-170004740D01*
X199506840Y-170108880D01*
X199194420Y-169892980D01*
X199163940Y-169875200D01*
X199052180Y-169799000D01*
X198960740Y-169735500D01*
X198897240Y-169694860D01*
X198869300Y-169679620D01*
X198866760Y-169682160D01*
X198836280Y-169707560D01*
X198775320Y-169765980D01*
X198688960Y-169849800D01*
X198592440Y-169946320D01*
X198518780Y-170019980D01*
X198432420Y-170106340D01*
X198379080Y-170164760D01*
X198348600Y-170202860D01*
X198338440Y-170225720D01*
X198340980Y-170240960D01*
X198361300Y-170273980D01*
X198407020Y-170342560D01*
X198470520Y-170436540D01*
X198546720Y-170548300D01*
X198610220Y-170639740D01*
X198676260Y-170743880D01*
X198721980Y-170820080D01*
X198737220Y-170855640D01*
X198732140Y-170870880D01*
X198711820Y-170931840D01*
X198673720Y-171025820D01*
X198628000Y-171135040D01*
X198518780Y-171381420D01*
X198356220Y-171414440D01*
X198257160Y-171432220D01*
X198120000Y-171457620D01*
X197990460Y-171483020D01*
X197784720Y-171523660D01*
X197777100Y-172275500D01*
X197807580Y-172290740D01*
X197838060Y-172298360D01*
X197914260Y-172316140D01*
X198023480Y-172336460D01*
X198150480Y-172361860D01*
X198259700Y-172382180D01*
X198371460Y-172402500D01*
X198450200Y-172417740D01*
X198485760Y-172425360D01*
X198493380Y-172435520D01*
X198521320Y-172488860D01*
X198559420Y-172575220D01*
X198602600Y-172676820D01*
X198648320Y-172780960D01*
X198686420Y-172880020D01*
X198714360Y-172953680D01*
X198724520Y-172991780D01*
X198709280Y-173019720D01*
X198666100Y-173085760D01*
X198605140Y-173177200D01*
X198531480Y-173286420D01*
X198457820Y-173395640D01*
X198394320Y-173489620D01*
X198351140Y-173555660D01*
X198330820Y-173586140D01*
X198340980Y-173609000D01*
X198384160Y-173659800D01*
X198467980Y-173746160D01*
X198589900Y-173868080D01*
X198610220Y-173885860D01*
X198706740Y-173979840D01*
X198790560Y-174056040D01*
X198846440Y-174106840D01*
X198871840Y-174127160D01*
D11*
X218180000Y-110490000D02*
G75*
G03X218180000Y-110490000I-6100000J0D01*
G01*
X139860000Y-98640000D02*
X220140000Y-98640000D01*
X220140000Y-98640000D02*
X220140000Y-62360000D01*
X220140000Y-62360000D02*
X140660000Y-62360000D01*
X139860000Y-62360000D02*
X139860000Y-98640000D01*
X139870000Y-62360000D02*
X140660000Y-62360000D01*
X146500000Y-62000000D02*
X149500000Y-62000000D01*
X148200000Y-73000000D02*
X211700000Y-73000000D01*
X147700280Y-87499320D02*
X147700280Y-73500000D01*
X211700660Y-88000000D02*
X148200000Y-88000000D01*
X212200000Y-73500000D02*
X212200000Y-87500000D01*
X212200000Y-73500000D02*
G75*
G03X211700000Y-73000000I-500000J0D01*
G01*
X211700660Y-87999700D02*
G75*
G03X212201040Y-87499320I0J500380D01*
G01*
X147700280Y-87499320D02*
G75*
G03X148200660Y-87999700I500380J0D01*
G01*
X148200660Y-72998460D02*
G75*
G03X147700280Y-73498840I0J-500380D01*
G01*
X143000000Y-68000000D02*
X216000000Y-68000000D01*
X216000000Y-68000000D02*
X216000000Y-93000000D01*
X216000000Y-93000000D02*
X143000000Y-93000000D01*
X143000000Y-93000000D02*
X143000000Y-68000000D01*
X212090000Y-129540000D02*
X212090000Y-119380000D01*
X210820000Y-129540000D02*
X218440000Y-129540000D01*
X218440000Y-129540000D02*
X218440000Y-119380000D01*
X218440000Y-119380000D02*
X210820000Y-119380000D01*
X210820000Y-119380000D02*
X210820000Y-129540000D01*
X194440000Y-109490000D02*
X194440000Y-111490000D01*
X191640000Y-109490000D02*
X194440000Y-109490000D01*
X191640000Y-111490000D02*
X191640000Y-109490000D01*
X194440000Y-111490000D02*
X191640000Y-111490000D01*
X194440000Y-106410000D02*
X191640000Y-106410000D01*
X191640000Y-106410000D02*
X191640000Y-104410000D01*
X191640000Y-104410000D02*
X194440000Y-104410000D01*
X194440000Y-104410000D02*
X194440000Y-106410000D01*
X199530000Y-116270000D02*
X202970000Y-116270000D01*
X202970000Y-116270000D02*
X202970000Y-107030000D01*
X202970000Y-107030000D02*
X199530000Y-107030000D01*
X199530000Y-107030000D02*
X199530000Y-116270000D01*
X201250000Y-116960000D02*
X201250000Y-116270000D01*
X201250000Y-106340000D02*
X201250000Y-107030000D01*
X212560000Y-52290000D02*
X212560000Y-52980000D01*
X212460000Y-52290000D02*
X212560000Y-52290000D01*
X205940000Y-52290000D02*
X205940000Y-52540000D01*
X206040000Y-52290000D02*
X205940000Y-52290000D01*
X206040000Y-52090000D02*
X206040000Y-52290000D01*
X207460000Y-52290000D02*
X207460000Y-52090000D01*
X212560000Y-58000000D02*
G75*
G02X211250000Y-59310000I-1310000J0D01*
G01*
X207250000Y-59310000D02*
G75*
G02X205940000Y-58000000I0J1310000D01*
G01*
X211250000Y-59310000D02*
X209760000Y-59310000D01*
X212560000Y-54020000D02*
X212560000Y-58000000D01*
X205940000Y-58000000D02*
X205940000Y-54460000D01*
X208740000Y-59310000D02*
X207250000Y-59310000D01*
X212460000Y-52090000D02*
X212460000Y-52290000D01*
X211040000Y-52090000D02*
X212460000Y-52090000D01*
X211040000Y-52290000D02*
X211040000Y-52090000D01*
X207460000Y-52290000D02*
X211040000Y-52290000D01*
X206040000Y-52090000D02*
X207460000Y-52090000D01*
D10*
X162452380Y-94261904D02*
X163261904Y-94261904D01*
X163357142Y-94214285D01*
X163404761Y-94166666D01*
X163452380Y-94071428D01*
X163452380Y-93880952D01*
X163404761Y-93785714D01*
X163357142Y-93738095D01*
X163261904Y-93690476D01*
X162452380Y-93690476D01*
X163452380Y-92690476D02*
X163452380Y-93261904D01*
X163452380Y-92976190D02*
X162452380Y-92976190D01*
X162595238Y-93071428D01*
X162690476Y-93166666D01*
X162738095Y-93261904D01*
X211199047Y-103218571D02*
X211341904Y-103266190D01*
X211389523Y-103313809D01*
X211437142Y-103409047D01*
X211437142Y-103551904D01*
X211389523Y-103647142D01*
X211341904Y-103694761D01*
X211246666Y-103742380D01*
X210865714Y-103742380D01*
X210865714Y-102742380D01*
X211199047Y-102742380D01*
X211294285Y-102790000D01*
X211341904Y-102837619D01*
X211389523Y-102932857D01*
X211389523Y-103028095D01*
X211341904Y-103123333D01*
X211294285Y-103170952D01*
X211199047Y-103218571D01*
X210865714Y-103218571D01*
X211770476Y-102742380D02*
X212437142Y-102742380D01*
X211770476Y-103742380D01*
X212437142Y-103742380D01*
X213341904Y-103742380D02*
X212770476Y-103742380D01*
X213056190Y-103742380D02*
X213056190Y-102742380D01*
X212960952Y-102885238D01*
X212865714Y-102980476D01*
X212770476Y-103028095D01*
X207889047Y-108021428D02*
X208650952Y-108021428D01*
X208270000Y-108402380D02*
X208270000Y-107640476D01*
X140965714Y-61642380D02*
X140965714Y-60642380D01*
X141203809Y-60642380D01*
X141346666Y-60690000D01*
X141441904Y-60785238D01*
X141489523Y-60880476D01*
X141537142Y-61070952D01*
X141537142Y-61213809D01*
X141489523Y-61404285D01*
X141441904Y-61499523D01*
X141346666Y-61594761D01*
X141203809Y-61642380D01*
X140965714Y-61642380D01*
X141918095Y-61594761D02*
X142060952Y-61642380D01*
X142299047Y-61642380D01*
X142394285Y-61594761D01*
X142441904Y-61547142D01*
X142489523Y-61451904D01*
X142489523Y-61356666D01*
X142441904Y-61261428D01*
X142394285Y-61213809D01*
X142299047Y-61166190D01*
X142108571Y-61118571D01*
X142013333Y-61070952D01*
X141965714Y-61023333D01*
X141918095Y-60928095D01*
X141918095Y-60832857D01*
X141965714Y-60737619D01*
X142013333Y-60690000D01*
X142108571Y-60642380D01*
X142346666Y-60642380D01*
X142489523Y-60690000D01*
X143441904Y-61642380D02*
X142870476Y-61642380D01*
X143156190Y-61642380D02*
X143156190Y-60642380D01*
X143060952Y-60785238D01*
X142965714Y-60880476D01*
X142870476Y-60928095D01*
X219162380Y-124793333D02*
X219876666Y-124793333D01*
X220019523Y-124840952D01*
X220114761Y-124936190D01*
X220162380Y-125079047D01*
X220162380Y-125174285D01*
X220162380Y-123793333D02*
X220162380Y-124364761D01*
X220162380Y-124079047D02*
X219162380Y-124079047D01*
X219305238Y-124174285D01*
X219400476Y-124269523D01*
X219448095Y-124364761D01*
X192206666Y-111742380D02*
X192206666Y-112456666D01*
X192159047Y-112599523D01*
X192063809Y-112694761D01*
X191920952Y-112742380D01*
X191825714Y-112742380D01*
X192682857Y-112742380D02*
X192682857Y-111742380D01*
X193063809Y-111742380D01*
X193159047Y-111790000D01*
X193206666Y-111837619D01*
X193254285Y-111932857D01*
X193254285Y-112075714D01*
X193206666Y-112170952D01*
X193159047Y-112218571D01*
X193063809Y-112266190D01*
X192682857Y-112266190D01*
X194206666Y-112742380D02*
X193635238Y-112742380D01*
X193920952Y-112742380D02*
X193920952Y-111742380D01*
X193825714Y-111885238D01*
X193730476Y-111980476D01*
X193635238Y-112028095D01*
X192206666Y-106662380D02*
X192206666Y-107376666D01*
X192159047Y-107519523D01*
X192063809Y-107614761D01*
X191920952Y-107662380D01*
X191825714Y-107662380D01*
X192682857Y-107662380D02*
X192682857Y-106662380D01*
X193063809Y-106662380D01*
X193159047Y-106710000D01*
X193206666Y-106757619D01*
X193254285Y-106852857D01*
X193254285Y-106995714D01*
X193206666Y-107090952D01*
X193159047Y-107138571D01*
X193063809Y-107186190D01*
X192682857Y-107186190D01*
X193635238Y-106757619D02*
X193682857Y-106710000D01*
X193778095Y-106662380D01*
X194016190Y-106662380D01*
X194111428Y-106710000D01*
X194159047Y-106757619D01*
X194206666Y-106852857D01*
X194206666Y-106948095D01*
X194159047Y-107090952D01*
X193587619Y-107662380D01*
X194206666Y-107662380D01*
X198982380Y-111816666D02*
X198506190Y-112150000D01*
X198982380Y-112388095D02*
X197982380Y-112388095D01*
X197982380Y-112007142D01*
X198030000Y-111911904D01*
X198077619Y-111864285D01*
X198172857Y-111816666D01*
X198315714Y-111816666D01*
X198410952Y-111864285D01*
X198458571Y-111911904D01*
X198506190Y-112007142D01*
X198506190Y-112388095D01*
X198982380Y-110864285D02*
X198982380Y-111435714D01*
X198982380Y-111150000D02*
X197982380Y-111150000D01*
X198125238Y-111245238D01*
X198220476Y-111340476D01*
X198268095Y-111435714D01*
X208754761Y-51452380D02*
X208421428Y-50976190D01*
X208183333Y-51452380D02*
X208183333Y-50452380D01*
X208564285Y-50452380D01*
X208659523Y-50500000D01*
X208707142Y-50547619D01*
X208754761Y-50642857D01*
X208754761Y-50785714D01*
X208707142Y-50880952D01*
X208659523Y-50928571D01*
X208564285Y-50976190D01*
X208183333Y-50976190D01*
X209040476Y-50452380D02*
X209373809Y-51452380D01*
X209707142Y-50452380D01*
X210564285Y-51452380D02*
X209992857Y-51452380D01*
X210278571Y-51452380D02*
X210278571Y-50452380D01*
X210183333Y-50595238D01*
X210088095Y-50690476D01*
X209992857Y-50738095D01*
M02*
